<svg width="150" height="150" viewBox="0 0 150 150" fill="none" xmlns="http://www.w3.org/2000/svg">
<rect width="150" height="150" rx="32" fill="url(#paint0_linear)"/>
<path fill-rule="evenodd" clip-rule="evenodd" d="M54 37.4429C54 33.6997 56.3071 31 59.7009 31C63.0947 31 87.8125 31 91.1407 31C94.4689 31 97 33.8813 97 37.4429C97 41.0045 97 110.798 97 114.53C97 118.262 94.1809 120 91.7408 120C89.3007 120 62.4155 120 59.2899 120C56.1643 120 54 117.211 54 114.052C54 110.893 54 41.1861 54 37.4429Z" stroke="#E5E5E5" stroke-linecap="round" stroke-linejoin="round"/>
<path d="M75.5165 115.675C68.6769 115.675 63.8495 115.675 61.0342 115.675C58.2189 115.675 56.8771 114.333 57.0088 111.65V72.4877C57.0088 51.3779 57.0088 39.7398 57.0088 37.5737C57.0088 35.4075 58.2001 34.2162 60.5825 34H65.7643C65.8076 35.6723 66.6438 36.5085 68.2728 36.5085C69.9018 36.5085 72.3309 36.5085 75.5599 36.5085" stroke="#E5E5E5" stroke-linecap="round" stroke-linejoin="round"/>
<path d="M75.0433 115.675C81.8829 115.675 86.7103 115.675 89.5256 115.675C92.3409 115.675 93.6827 114.333 93.551 111.65V72.4877C93.551 51.3779 93.551 39.7398 93.551 37.5737C93.551 35.4075 92.3598 34.2162 89.9773 34H84.7955C84.7522 35.6723 83.916 36.5085 82.287 36.5085C80.658 36.5085 78.2289 36.5085 74.9999 36.5085" stroke="#E5E5E5" stroke-linecap="round" stroke-linejoin="round"/>
<path d="M77.25 31C77.25 29.7574 76.2426 28.75 75 28.75C73.7574 28.75 72.75 29.7574 72.75 31C72.75 32.2426 73.7574 33.25 75 33.25C76.2426 33.25 77.25 32.2426 77.25 31Z" fill="#515151" stroke="white" stroke-width="1.5"/>
<path d="M78 31C78 29.3431 76.6569 28 75 28C73.3431 28 72 29.3431 72 31C72 32.6569 73.3431 34 75 34C76.6569 34 78 32.6569 78 31Z" stroke="white"/>
<path d="M65.25 120C65.25 118.757 64.2426 117.75 63 117.75C61.7574 117.75 60.75 118.757 60.75 120C60.75 121.243 61.7574 122.25 63 122.25C64.2426 122.25 65.25 121.243 65.25 120Z" fill="#515151" stroke="white" stroke-width="1.5"/>
<path d="M66 120C66 118.343 64.6569 117 63 117C61.3431 117 60 118.343 60 120C60 121.657 61.3431 123 63 123C64.6569 123 66 121.657 66 120Z" stroke="white"/>
<path d="M89.25 120C89.25 118.757 88.2426 117.75 87 117.75C85.7574 117.75 84.75 118.757 84.75 120C84.75 121.243 85.7574 122.25 87 122.25C88.2426 122.25 89.25 121.243 89.25 120Z" fill="#515151" stroke="white" stroke-width="1.5"/>
<path d="M90 120C90 118.343 88.6569 117 87 117C85.3431 117 84 118.343 84 120C84 121.657 85.3431 123 87 123C88.6569 123 90 121.657 90 120Z" stroke="white"/>
<defs>
<linearGradient id="paint0_linear" x1="75" y1="0" x2="75" y2="150" gradientUnits="userSpaceOnUse">
<stop stop-color="#37AFE2"/>
<stop offset="1" stop-color="#1F96D4"/>
</linearGradient>
</defs>
</svg>
