<svg width="120" height="37" viewBox="0 0 120 37" fill="none" xmlns="http://www.w3.org/2000/svg">
<path d="M65.7867 2.46667C65.7867 1.10436 66.8776 0 68.2233 0H117.563C118.909 0 120 1.10436 120 2.46667V28.3667C120 29.729 118.909 30.8333 117.563 30.8333H68.2233C66.8776 30.8333 65.7867 29.729 65.7867 28.3667V2.46667Z" fill="url(#paint0_linear)"/>
<path d="M82.2334 30.8333L73.0964 36.3833V30.8333L82.2334 30.8333Z" fill="url(#paint1_linear)"/>
<path d="M3.47954 31.4155C3.22614 31.4155 3.01497 31.2658 2.84604 30.9665C2.69822 30.6886 2.57152 30.2931 2.46594 29.7801C2.38147 29.2884 2.31812 28.7112 2.27589 28.0485C2.25477 27.3858 2.24421 26.6696 2.24421 25.9C2.24421 25.0021 2.25477 24.0829 2.27589 23.1423C2.31812 22.2016 2.36035 21.2931 2.40259 20.4166C2.46594 19.5187 2.50817 18.6957 2.52929 17.9475C2.57152 17.1779 2.59264 16.5365 2.59264 16.0235C2.59264 15.8524 2.59264 15.7028 2.59264 15.5745C2.59264 15.4249 2.58208 15.2966 2.56096 15.1897C2.53985 14.9546 2.31812 14.837 1.89578 14.837C1.76908 14.837 1.62127 14.8477 1.45233 14.8691C1.30452 14.8691 1.13558 14.8691 0.945531 14.8691C0.776597 14.8691 0.671013 14.8156 0.62878 14.7087C0.586546 14.6018 0.56543 14.527 0.56543 14.4843C0.586546 13.9284 0.671013 13.4368 0.818831 13.0092C0.945531 12.6458 1.13558 12.3144 1.38898 12.0151C1.6635 11.6945 2.05416 11.5341 2.56096 11.5341C2.58208 11.5341 2.61375 11.5234 2.65599 11.5021C2.74046 11.4593 2.78269 11.3845 2.78269 11.2776C2.80381 10.8073 2.82492 10.3156 2.84604 9.80253C2.86716 9.37497 2.87771 8.90466 2.87771 8.3916C2.89883 7.87853 2.90939 7.37615 2.90939 6.88446C2.90939 6.30726 3.08888 5.7942 3.44787 5.34526C3.80685 4.87495 4.2503 4.47946 4.77822 4.1588C5.32726 3.83813 5.90797 3.59229 6.52035 3.42126C7.15386 3.25024 7.72401 3.16473 8.23081 3.16473C8.7165 3.16473 9.15995 3.34644 9.56117 3.70986C9.9835 4.05191 10.1947 4.4474 10.1947 4.89633C10.1947 4.93909 10.1841 4.99253 10.163 5.05666C10.1419 5.09942 10.0785 5.14217 9.97294 5.18493C9.80401 5.24906 9.61396 5.32389 9.40279 5.4094C9.23386 5.49491 9.04381 5.61249 8.83264 5.76213C8.62147 5.8904 8.4103 6.06142 8.19914 6.2752C7.75568 6.72413 7.43893 7.34409 7.24888 8.13506C7.07995 8.90466 6.99548 9.95217 6.99548 11.2776C6.99548 11.3204 7.00604 11.3631 7.02716 11.4059C7.04827 11.47 7.11162 11.5021 7.21721 11.5021C7.32279 11.5021 7.46005 11.5021 7.62898 11.5021C7.81903 11.4807 7.99853 11.47 8.16746 11.47C8.35751 11.47 8.52644 11.47 8.67426 11.47C8.8432 11.4486 8.95934 11.4379 9.02269 11.4379C9.08604 11.4379 9.14939 11.4593 9.21274 11.5021C9.29721 11.5234 9.33944 11.6196 9.33944 11.7907C9.33944 11.8976 9.29721 12.1113 9.21274 12.432C9.14939 12.7527 9.03325 13.084 8.86431 13.4261C8.69538 13.7681 8.47365 14.0674 8.19914 14.3239C7.92462 14.5805 7.58675 14.7087 7.18553 14.7087L7.05883 14.7729C6.97436 14.8156 6.93213 14.8798 6.93213 14.9653C6.91101 15.4142 6.8899 15.9166 6.86878 16.4724C6.84766 16.9427 6.8371 17.4878 6.8371 18.1078C6.8371 18.7064 6.8371 19.337 6.8371 19.9997C6.8371 21.1969 6.85822 22.3727 6.90045 23.5271C6.94269 24.6815 7.02716 25.59 7.15386 26.2527C7.17497 26.3596 7.18553 26.5093 7.18553 26.7017C7.18553 27.2147 7.05883 27.7492 6.80543 28.305C6.55203 28.8608 6.23528 29.3632 5.85518 29.8121C5.49619 30.2824 5.09497 30.6672 4.65152 30.9665C4.22919 31.2658 3.83853 31.4155 3.47954 31.4155Z" fill="#4353FF"/>
<path d="M17.9229 25.8679C17.9652 26.1031 17.9229 26.2741 17.7962 26.381C17.6695 26.5093 17.5217 26.5948 17.3528 26.6375C17.1839 26.7017 17.0044 26.7337 16.8143 26.7337C16.6454 26.7551 16.5292 26.7658 16.4659 26.7658C15.8957 26.7658 15.41 26.723 15.0088 26.6375C14.6076 26.552 14.2803 26.4451 14.0269 26.3169C13.7735 26.21 13.5835 26.1031 13.4567 25.9962C13.33 25.8893 13.235 25.8038 13.1717 25.7397C13.0027 25.5686 12.876 25.109 12.7916 24.3608C12.7282 23.5912 12.6965 22.6506 12.6965 21.5389C12.6965 20.3418 12.7282 19.027 12.7916 17.5947C12.8549 16.141 12.9183 14.7194 12.9816 13.3299C13.045 11.9403 13.1083 10.6683 13.1717 9.51393C13.235 8.33815 13.2667 7.44029 13.2667 6.82033C13.2667 6.71344 13.235 6.58517 13.1717 6.43553C13.1083 6.26451 13.0344 6.09349 12.9499 5.92246C12.8655 5.73006 12.7916 5.53766 12.7282 5.34526C12.6649 5.15286 12.6332 4.96046 12.6332 4.76806C12.6332 4.61842 12.7493 4.43671 12.9816 4.22293C13.2139 3.98777 13.5201 3.774 13.9002 3.5816C14.3014 3.3892 14.7554 3.22886 15.2622 3.1006C15.7901 2.95095 16.3392 2.87613 16.9093 2.87613C16.9516 2.87613 17.0255 2.88682 17.1311 2.9082C17.2578 2.9082 17.3845 2.94026 17.5112 3.0044C17.6379 3.04715 17.7435 3.12197 17.8279 3.22886C17.9335 3.31437 17.9757 3.44264 17.9546 3.61366C17.8913 5.217 17.8385 6.86309 17.7962 8.55193C17.754 10.0056 17.7118 11.609 17.6695 13.3619C17.6484 15.1149 17.6379 16.8251 17.6379 18.4926C17.6379 20.0746 17.659 21.5282 17.7012 22.8537C17.7435 24.1791 17.8174 25.1838 17.9229 25.8679Z" fill="#4353FF"/>
<path d="M31.6559 19.0698C31.6559 18.685 31.582 18.2468 31.4342 17.7551C31.3075 17.242 31.0963 16.761 30.8007 16.3121C30.5261 15.8631 30.1777 15.489 29.7554 15.1897C29.3542 14.8691 28.8685 14.7087 28.2983 14.7087C28.1083 14.7087 27.8971 14.7942 27.6648 14.9653C27.4325 15.1363 27.2108 15.3821 26.9996 15.7028C26.8096 16.0235 26.6512 16.419 26.5245 16.8893C26.3978 17.3382 26.3345 17.862 26.3345 18.4605C26.3345 19.9356 26.609 21.0579 27.158 21.8275C27.707 22.5971 28.4567 22.9819 29.4069 22.9819C30.146 22.9819 30.7056 22.6185 31.0857 21.8917C31.4658 21.1648 31.6559 20.2242 31.6559 19.0698ZM28.4567 26.9903C27.3375 26.9903 26.3556 26.8086 25.5109 26.4451C24.6662 26.1031 23.9588 25.6221 23.3887 25.0021C22.8185 24.3608 22.3856 23.5912 22.09 22.6933C21.8155 21.7955 21.6782 20.8014 21.6782 19.7111C21.6782 18.4498 21.8683 17.2634 22.2484 16.1517C22.6285 15.0187 23.2092 14.0353 23.9905 13.2016C24.7718 12.3679 25.7432 11.7052 26.9046 11.2135C28.0872 10.7218 29.4703 10.4759 31.0541 10.4759C32.0254 10.4759 32.8279 10.6149 33.4614 10.8928C34.0949 11.1493 34.4116 11.4059 34.4116 11.6624C34.4116 11.812 34.3271 11.9831 34.1582 12.1755C34.0104 12.3465 33.8415 12.5175 33.6514 12.6885C33.4614 12.8382 33.2819 12.9771 33.1129 13.1054C32.9651 13.2123 32.8912 13.2978 32.8912 13.3619C32.8912 13.4688 33.0496 13.6292 33.3663 13.8429C33.6831 14.0353 34.0315 14.3346 34.4116 14.7408C34.7917 15.147 35.1401 15.6921 35.4569 16.3762C35.7736 17.0389 35.932 17.8833 35.932 18.9095C35.932 19.7004 35.7948 20.5662 35.5202 21.5069C35.2457 22.4475 34.8023 23.324 34.1899 24.1363C33.5986 24.9487 32.8279 25.6221 31.8776 26.1565C30.9485 26.7124 29.8082 26.9903 28.4567 26.9903Z" fill="#4353FF"/>
<path d="M48.8127 21.6993C48.7916 21.6138 48.7599 21.5389 48.7177 21.4748C48.6966 21.3893 48.6543 21.3465 48.591 21.3465C48.5276 21.3465 48.4748 21.3893 48.4326 21.4748C48.4115 21.5389 48.3798 21.6244 48.3376 21.7313C48.2531 21.9237 48.1158 22.2978 47.9258 22.8537C47.7569 23.4095 47.514 23.9867 47.1973 24.5853C46.8805 25.1625 46.4793 25.6862 45.9936 26.1565C45.5079 26.6268 44.9272 26.862 44.2515 26.862C43.6813 26.862 43.1534 26.6589 42.6677 26.2527C42.182 25.8679 41.7491 25.3442 41.369 24.6815C40.9889 23.9974 40.6405 23.2064 40.3238 22.3085C40.0281 21.4107 39.7853 20.4487 39.5952 19.4225C39.4052 18.3964 39.2574 17.3382 39.1518 16.2479C39.0462 15.1363 38.9934 14.0567 38.9934 13.0092C38.9934 12.7313 39.0673 12.4534 39.2151 12.1755C39.3841 11.8762 39.6164 11.609 39.912 11.3738C40.2076 11.1386 40.5561 10.9462 40.9573 10.7966C41.3796 10.647 41.8442 10.5721 42.351 10.5721C42.4354 10.5721 42.5938 10.5935 42.8261 10.6363C43.0795 10.679 43.2062 10.8287 43.2062 11.0852C43.2062 11.1921 43.1956 11.3097 43.1745 11.4379C43.1745 11.5448 43.1745 11.7372 43.1745 12.0151C43.1745 12.4854 43.1851 13.0199 43.2062 13.6185C43.2484 14.217 43.3012 14.837 43.3646 15.4783C43.449 16.1197 43.5441 16.7503 43.6497 17.3703C43.7552 17.9688 43.8819 18.514 44.0298 19.0057C44.1776 19.476 44.336 19.8608 44.5049 20.1601C44.6949 20.4594 44.9061 20.609 45.1384 20.609C45.4129 20.609 45.7085 20.3632 46.0253 19.8715C46.3632 19.3584 46.6694 18.7491 46.9439 18.0437C47.2184 17.3168 47.4507 16.5686 47.6407 15.799C47.8308 15.008 47.9258 14.3239 47.9258 13.7467C47.9258 13.3833 48.1792 13.0199 48.686 12.6565C49.2139 12.2717 49.953 12.0793 50.9033 12.0793C50.9666 12.0793 51.0511 12.09 51.1567 12.1113C51.2834 12.1113 51.3995 12.1434 51.5051 12.2075C51.6318 12.2503 51.7374 12.3144 51.8218 12.3999C51.9274 12.4854 51.9802 12.603 51.9802 12.7527C51.9802 12.9237 51.9802 13.2444 51.9802 13.7147C52.0013 14.185 52.0224 14.7301 52.0436 15.3501C52.0858 15.97 52.1492 16.622 52.2336 17.3061C52.3181 17.9688 52.4237 18.5888 52.5504 19.166C52.6982 19.7218 52.8777 20.1814 53.0888 20.5449C53.3211 20.9083 53.5956 21.09 53.9124 21.09C54.1447 21.09 54.3875 20.919 54.6409 20.5769C54.8943 20.2349 55.1161 19.786 55.3061 19.2301C55.5173 18.6743 55.6862 18.0437 55.8129 17.3382C55.9607 16.6327 56.0346 15.9166 56.0346 15.1897C56.0346 14.7622 56.003 14.3453 55.9396 13.9391C55.8974 13.5116 55.8129 13.1054 55.6862 12.7206C55.6651 12.6565 55.6545 12.571 55.6545 12.4641C55.6545 12.1862 55.7707 11.8976 56.003 11.5983C56.2352 11.299 56.5414 11.0211 56.9215 10.7645C57.3016 10.508 57.7345 10.3049 58.2202 10.1553C58.7059 9.98424 59.1916 9.89873 59.6773 9.89873C59.7617 9.89873 59.8673 9.90942 59.994 9.9308C60.1418 9.9308 60.2791 9.95218 60.4058 9.99493C60.5325 10.0163 60.6381 10.0804 60.7226 10.1873C60.807 10.2728 60.8493 10.3904 60.8493 10.5401C60.8493 11.2242 60.7542 12.1006 60.5642 13.1695C60.3741 14.2384 60.0996 15.3821 59.7406 16.6007C59.4028 17.7978 58.991 19.0164 58.5053 20.2563C58.0407 21.4748 57.5128 22.5758 56.9215 23.5591C56.3303 24.5211 55.6968 25.3121 55.021 25.9321C54.3664 26.552 53.6801 26.862 52.9621 26.862C52.4765 26.862 52.033 26.7551 51.6318 26.5413C51.2517 26.3276 50.9138 26.0496 50.6182 25.7076C50.3226 25.3656 50.0586 24.9914 49.8263 24.5853C49.6151 24.1791 49.4356 23.7836 49.2878 23.3988C49.1611 23.014 49.0555 22.672 48.9711 22.3727C48.8866 22.0734 48.8338 21.8489 48.8127 21.6993Z" fill="#4353FF"/>
<path d="M80.7643 17.9154C80.7643 16.7182 80.6059 15.7883 80.2891 15.1256C79.9724 14.4629 79.4339 14.1315 78.6737 14.1315C78.3358 14.1315 77.9874 14.2277 77.6284 14.4201C77.2906 14.5912 77.0688 14.8156 76.9633 15.0935C76.9421 15.1577 76.921 15.3928 76.8999 15.799C76.8788 16.2052 76.8682 16.6862 76.8682 17.242C76.8682 17.8192 76.8893 18.4392 76.9316 19.1019C76.9738 19.7646 77.0372 20.3845 77.1216 20.9617C77.2272 21.5176 77.3645 21.9879 77.5334 22.3727C77.7235 22.7361 77.9663 22.9178 78.2619 22.9178C78.642 22.9178 78.9799 22.7788 79.2755 22.5009C79.5923 22.2016 79.8562 21.8168 80.0674 21.3465C80.2997 20.8762 80.4686 20.3418 80.5742 19.7432C80.7009 19.1446 80.7643 18.5354 80.7643 17.9154ZM75.7913 26.7979C75.0733 26.7979 74.5454 26.7124 74.2075 26.5413C73.8908 26.3917 73.6479 26.2314 73.479 26.0603C73.3101 25.8893 73.1622 25.558 73.0355 25.0663C72.9088 24.5746 72.8033 24.0188 72.7188 23.3988C72.6343 22.7575 72.571 22.0841 72.5287 21.3786C72.4865 20.6518 72.4443 19.9784 72.402 19.3584C72.3809 18.7171 72.3704 18.1612 72.3704 17.6909C72.3704 17.1992 72.3704 16.8572 72.3704 16.6648C72.3704 16.451 72.3704 16.0235 72.3704 15.3821C72.3915 14.7194 72.4126 13.9605 72.4337 13.1054C72.4759 12.2503 72.5287 11.3524 72.5921 10.4118C72.6554 9.4498 72.7293 8.54125 72.8138 7.68614C72.9194 6.83102 73.0355 6.0828 73.1622 5.44147C73.3101 4.80014 73.479 4.36189 73.669 4.12674C74.0914 3.63505 74.5982 3.33576 75.1895 3.22887C75.8018 3.1006 76.3509 3.03647 76.8366 3.03647C76.9421 3.03647 77.09 3.06854 77.28 3.13267C77.4701 3.17543 77.5651 3.33576 77.5651 3.61367C77.4384 4.40465 77.3328 5.23838 77.2483 6.11487C77.1639 6.86309 77.09 7.72889 77.0266 8.71227C76.9633 9.69565 76.9316 10.7325 76.9316 11.8227C76.9316 11.8655 76.9421 11.9082 76.9633 11.951C76.9844 12.0151 77.0372 12.0472 77.1216 12.0472C77.185 12.0472 77.2378 12.0258 77.28 11.9831C77.5123 11.7479 77.8185 11.5341 78.1986 11.3417C78.4942 11.1707 78.8743 11.0211 79.3389 10.8928C79.8246 10.7432 80.3947 10.6683 81.0493 10.6683C82.2319 10.6683 83.2032 11.16 83.9634 12.1434C84.7237 13.1054 85.1038 14.6018 85.1038 16.6327C85.1038 17.7016 84.9454 18.8346 84.6286 20.0318C84.333 21.2076 83.8156 22.2978 83.0765 23.3026C82.3586 24.3074 81.4083 25.1411 80.2258 25.8038C79.0433 26.4665 77.5651 26.7979 75.7913 26.7979Z" fill="white"/>
<path d="M98.3183 19.0698C98.3183 18.685 98.2443 18.2468 98.0965 17.7551C97.9698 17.242 97.7587 16.761 97.463 16.3121C97.1885 15.8631 96.8401 15.489 96.4177 15.1897C96.0165 14.8691 95.5308 14.7087 94.9607 14.7087C94.7706 14.7087 94.5595 14.7942 94.3272 14.9653C94.0949 15.1363 93.8732 15.3821 93.662 15.7028C93.472 16.0235 93.3136 16.419 93.1869 16.8893C93.0602 17.3382 92.9968 17.862 92.9968 18.4605C92.9968 19.9356 93.2714 21.0579 93.8204 21.8275C94.3694 22.5971 95.1191 22.9819 96.0693 22.9819C96.8084 22.9819 97.368 22.6185 97.7481 21.8917C98.1282 21.1648 98.3183 20.2242 98.3183 19.0698ZM95.1191 26.9903C93.9999 26.9903 93.018 26.8086 92.1733 26.4451C91.3286 26.1031 90.6212 25.6221 90.0511 25.0021C89.4809 24.3608 89.048 23.5912 88.7524 22.6933C88.4779 21.7955 88.3406 20.8014 88.3406 19.7111C88.3406 18.4498 88.5306 17.2634 88.9107 16.1517C89.2908 15.0187 89.8716 14.0353 90.6529 13.2016C91.4342 12.3679 92.4056 11.7052 93.567 11.2135C94.7495 10.7218 96.1327 10.4759 97.7164 10.4759C98.6878 10.4759 99.4902 10.6149 100.124 10.8928C100.757 11.1493 101.074 11.4059 101.074 11.6624C101.074 11.812 100.99 11.9831 100.821 12.1755C100.673 12.3465 100.504 12.5175 100.314 12.6885C100.124 12.8382 99.9443 12.9771 99.7753 13.1054C99.6275 13.2123 99.5536 13.2978 99.5536 13.3619C99.5536 13.4688 99.712 13.6292 100.029 13.8429C100.345 14.0353 100.694 14.3346 101.074 14.7408C101.454 15.147 101.803 15.6921 102.119 16.3762C102.436 17.0389 102.594 17.8833 102.594 18.9095C102.594 19.7004 102.457 20.5662 102.183 21.5069C101.908 22.4475 101.465 23.324 100.852 24.1363C100.261 24.9487 99.4902 25.6221 98.54 26.1565C97.6109 26.7124 96.4705 26.9903 95.1191 26.9903Z" fill="white"/>
<path d="M109.933 27.3109C109.3 27.3109 108.783 27.2361 108.381 27.0865C108.001 26.9368 107.727 26.7979 107.558 26.6696C107.178 26.4131 106.945 26.0496 106.861 25.5793C106.776 25.109 106.734 24.628 106.734 24.1363C106.734 23.2385 106.787 22.0627 106.893 20.609C107.019 19.1339 107.083 17.2954 107.083 15.0935C107.083 14.9653 107.009 14.8798 106.861 14.837C106.734 14.7942 106.586 14.7729 106.417 14.7729C106.333 14.7729 106.249 14.7836 106.164 14.8049C106.101 14.8049 106.048 14.8049 106.006 14.8049C105.921 14.8263 105.858 14.837 105.816 14.837C105.583 14.837 105.436 14.7836 105.372 14.6767C105.309 14.5484 105.277 14.3667 105.277 14.1315C105.277 13.6398 105.372 13.1802 105.562 12.7527C105.773 12.3037 105.932 12.0258 106.037 11.9189C106.164 11.7907 106.301 11.7158 106.449 11.6945C106.597 11.6517 106.724 11.6303 106.829 11.6303C106.935 11.609 107.03 11.5983 107.114 11.5983C107.199 11.5769 107.241 11.5128 107.241 11.4059C107.262 11.1066 107.273 10.8394 107.273 10.6042C107.273 10.369 107.273 10.166 107.273 9.99494C107.273 9.63151 107.262 9.34291 107.241 9.12914C107.241 8.91536 107.241 8.72296 107.241 8.55194C107.241 8.12438 107.452 7.75027 107.875 7.4296C108.297 7.08756 108.751 6.83103 109.237 6.66C109.448 6.57449 109.669 6.51036 109.902 6.4676C110.134 6.40347 110.419 6.3714 110.757 6.3714C110.926 6.3714 111.095 6.39278 111.264 6.43553C111.454 6.47829 111.549 6.61725 111.549 6.8524C111.549 6.95929 111.538 7.141 111.517 7.39754C111.496 7.65407 111.464 7.95336 111.422 8.2954C111.401 8.61607 111.38 8.95811 111.359 9.32154C111.338 9.68496 111.327 10.027 111.327 10.3477C111.327 10.6897 111.338 10.9783 111.359 11.2135C111.401 11.4272 111.464 11.5341 111.549 11.5341C111.591 11.5555 111.654 11.5662 111.739 11.5662H112.246C112.647 11.5662 112.89 11.5555 112.974 11.5341C113.08 11.4914 113.185 11.47 113.291 11.47C113.354 11.47 113.428 11.5021 113.513 11.5662C113.618 11.609 113.671 11.7479 113.671 11.9831C113.671 12.2824 113.629 12.5603 113.544 12.8168C113.481 13.052 113.386 13.2978 113.259 13.5543C113.154 13.8109 112.985 14.0567 112.752 14.2919C112.647 14.3988 112.52 14.4736 112.372 14.5163C112.225 14.5377 112.077 14.5591 111.929 14.5805C111.802 14.5805 111.686 14.5912 111.581 14.6125C111.496 14.6125 111.454 14.6553 111.454 14.7408C111.412 15.66 111.369 16.5045 111.327 17.2741C111.306 18.0223 111.295 18.7064 111.295 19.3263C111.295 20.1173 111.317 20.8228 111.359 21.4427C111.422 22.0413 111.517 22.5758 111.644 23.0461C111.771 23.5164 111.929 23.9332 112.119 24.2967C112.33 24.6387 112.594 24.9594 112.911 25.2587L113.069 25.419C113.111 25.4618 113.143 25.5152 113.164 25.5793C113.207 25.6221 113.228 25.6755 113.228 25.7397C113.228 26.0817 112.932 26.4238 112.341 26.7658C111.771 27.1292 110.968 27.3109 109.933 27.3109Z" fill="white"/>
<defs>
<linearGradient id="paint0_linear" x1="82.2334" y1="33.6083" x2="73.0964" y2="33.6083" gradientUnits="userSpaceOnUse">
<stop stop-color="#37AFE2"/>
<stop offset="1" stop-color="#1F96D4"/>
</linearGradient>
<linearGradient id="paint1_linear" x1="82.2334" y1="33.6083" x2="73.0964" y2="33.6083" gradientUnits="userSpaceOnUse">
<stop stop-color="#37AFE2"/>
<stop offset="1" stop-color="#1F96D4"/>
</linearGradient>
</defs>
</svg>
