<svg width="150" height="150" viewBox="0 0 150 150" fill="none" xmlns="http://www.w3.org/2000/svg">
<rect width="150" height="150" rx="32" fill="url(#paint0_linear)"/>
<path fill-rule="evenodd" clip-rule="evenodd" d="M112 42L38 71.9615L66.9565 83L112 42Z" stroke="#E5E5E5" stroke-linecap="round" stroke-linejoin="round"/>
<path fill-rule="evenodd" clip-rule="evenodd" d="M112.474 41.5997L99.6512 101.806L67.0131 82.9822L112.474 41.5997Z" stroke="#E5E5E5" stroke-linecap="round" stroke-linejoin="round"/>
<path d="M67 83V110L78 89.75" stroke="#E5E5E5" stroke-linecap="round" stroke-linejoin="round"/>
<path d="M41.25 72C41.25 70.7574 40.2426 69.75 39 69.75C37.7574 69.75 36.75 70.7574 36.75 72C36.75 73.2426 37.7574 74.25 39 74.25C40.2426 74.25 41.25 73.2426 41.25 72Z" fill="#515151" stroke="white" stroke-width="1.5"/>
<path d="M42 72C42 70.3431 40.6569 69 39 69C37.3431 69 36 70.3431 36 72C36 73.6569 37.3431 75 39 75C40.6569 75 42 73.6569 42 72Z" stroke="white"/>
<path d="M114.25 42C114.25 40.7574 113.243 39.75 112 39.75C110.757 39.75 109.75 40.7574 109.75 42C109.75 43.2426 110.757 44.25 112 44.25C113.243 44.25 114.25 43.2426 114.25 42Z" fill="#515151" stroke="white" stroke-width="1.5"/>
<path d="M115 42C115 40.3431 113.657 39 112 39C110.343 39 109 40.3431 109 42C109 43.6569 110.343 45 112 45C113.657 45 115 43.6569 115 42Z" stroke="white"/>
<path d="M102.25 102C102.25 100.757 101.243 99.75 100 99.75C98.7574 99.75 97.75 100.757 97.75 102C97.75 103.243 98.7574 104.25 100 104.25C101.243 104.25 102.25 103.243 102.25 102Z" fill="#515151" stroke="white" stroke-width="1.5"/>
<path d="M103 102C103 100.343 101.657 99 100 99C98.3431 99 97 100.343 97 102C97 103.657 98.3431 105 100 105C101.657 105 103 103.657 103 102Z" stroke="white"/>
<path d="M69.25 83C69.25 81.7574 68.2426 80.75 67 80.75C65.7574 80.75 64.75 81.7574 64.75 83C64.75 84.2426 65.7574 85.25 67 85.25C68.2426 85.25 69.25 84.2426 69.25 83Z" fill="#515151" stroke="white" stroke-width="1.5"/>
<path d="M70 83C70 81.3431 68.6569 80 67 80C65.3431 80 64 81.3431 64 83C64 84.6569 65.3431 86 67 86C68.6569 86 70 84.6569 70 83Z" stroke="white"/>
<path d="M69.25 109C69.25 107.757 68.2426 106.75 67 106.75C65.7574 106.75 64.75 107.757 64.75 109C64.75 110.243 65.7574 111.25 67 111.25C68.2426 111.25 69.25 110.243 69.25 109Z" fill="#515151" stroke="white" stroke-width="1.5"/>
<path d="M70 109C70 107.343 68.6569 106 67 106C65.3431 106 64 107.343 64 109C64 110.657 65.3431 112 67 112C68.6569 112 70 110.657 70 109Z" stroke="white"/>
<defs>
<linearGradient id="paint0_linear" x1="75" y1="0" x2="75" y2="150" gradientUnits="userSpaceOnUse">
<stop stop-color="#37AFE2"/>
<stop offset="1" stop-color="#1F96D4"/>
</linearGradient>
</defs>
</svg>
