<svg width="150" height="150" viewBox="0 0 150 150" fill="none" xmlns="http://www.w3.org/2000/svg">
<rect width="150" height="150" rx="32" fill="url(#paint0_linear)"/>
<path d="M104 39H46V111H104V39Z" stroke="#E5E5E5" stroke-linecap="round" stroke-linejoin="round"/>
<path d="M94 50H56V71H94V50Z" stroke="#E5E5E5" stroke-linecap="round" stroke-linejoin="round"/>
<path d="M49.25 110C49.25 108.757 48.2426 107.75 47 107.75C45.7574 107.75 44.75 108.757 44.75 110C44.75 111.243 45.7574 112.25 47 112.25C48.2426 112.25 49.25 111.243 49.25 110Z" fill="#515151" stroke="white" stroke-width="1.5"/>
<path d="M50 110C50 108.343 48.6569 107 47 107C45.3431 107 44 108.343 44 110C44 111.657 45.3431 113 47 113C48.6569 113 50 111.657 50 110Z" stroke="white"/>
<path d="M95.75 70.5C95.75 69.2574 94.7426 68.25 93.5 68.25C92.2574 68.25 91.25 69.2574 91.25 70.5C91.25 71.7426 92.2574 72.75 93.5 72.75C94.7426 72.75 95.75 71.7426 95.75 70.5Z" fill="#515151" stroke="white" stroke-width="1.5"/>
<path d="M96.5 70.5C96.5 68.8431 95.1569 67.5 93.5 67.5C91.8431 67.5 90.5 68.8431 90.5 70.5C90.5 72.1569 91.8431 73.5 93.5 73.5C95.1569 73.5 96.5 72.1569 96.5 70.5Z" stroke="white"/>
<path d="M58.75 50.5C58.75 49.2574 57.7426 48.25 56.5 48.25C55.2574 48.25 54.25 49.2574 54.25 50.5C54.25 51.7426 55.2574 52.75 56.5 52.75C57.7426 52.75 58.75 51.7426 58.75 50.5Z" fill="#515151" stroke="white" stroke-width="1.5"/>
<path d="M59.5 50.5C59.5 48.8431 58.1569 47.5 56.5 47.5C54.8431 47.5 53.5 48.8431 53.5 50.5C53.5 52.1569 54.8431 53.5 56.5 53.5C58.1569 53.5 59.5 52.1569 59.5 50.5Z" stroke="white"/>
<path d="M106.25 40C106.25 38.7574 105.243 37.75 104 37.75C102.757 37.75 101.75 38.7574 101.75 40C101.75 41.2426 102.757 42.25 104 42.25C105.243 42.25 106.25 41.2426 106.25 40Z" fill="#515151" stroke="white" stroke-width="1.5"/>
<path d="M107 40C107 38.3431 105.657 37 104 37C102.343 37 101 38.3431 101 40C101 41.6569 102.343 43 104 43C105.657 43 107 41.6569 107 40Z" stroke="white"/>
<path d="M87.5 79H58" stroke="#E5E5E5" stroke-linecap="round" stroke-linejoin="round"/>
<path d="M58.75 79C58.75 77.7574 57.7426 76.75 56.5 76.75C55.2574 76.75 54.25 77.7574 54.25 79C54.25 80.2426 55.2574 81.25 56.5 81.25C57.7426 81.25 58.75 80.2426 58.75 79Z" fill="#515151" stroke="white" stroke-width="1.5"/>
<path d="M59.5 79C59.5 77.3431 58.1569 76 56.5 76C54.8431 76 53.5 77.3431 53.5 79C53.5 80.6569 54.8431 82 56.5 82C58.1569 82 59.5 80.6569 59.5 79Z" stroke="white"/>
<path d="M74.5 87H58" stroke="#E5E5E5" stroke-linecap="round" stroke-linejoin="round"/>
<path d="M77.25 87C77.25 85.7574 76.2426 84.75 75 84.75C73.7574 84.75 72.75 85.7574 72.75 87C72.75 88.2426 73.7574 89.25 75 89.25C76.2426 89.25 77.25 88.2426 77.25 87Z" fill="#515151" stroke="white" stroke-width="1.5"/>
<path d="M78 87C78 85.3431 76.6569 84 75 84C73.3431 84 72 85.3431 72 87C72 88.6569 73.3431 90 75 90C76.6569 90 78 88.6569 78 87Z" stroke="white"/>
<defs>
<linearGradient id="paint0_linear" x1="75" y1="0" x2="75" y2="150" gradientUnits="userSpaceOnUse">
<stop stop-color="#37AFE2"/>
<stop offset="1" stop-color="#1F96D4"/>
</linearGradient>
</defs>
</svg>
