<svg width="20" height="20" viewBox="0 0 20 20" fill="none" xmlns="http://www.w3.org/2000/svg">
<path d="M7.08325 16.6667C6.75173 16.6667 6.43379 16.535 6.19937 16.3005C5.96495 16.0661 5.83325 15.7482 5.83325 15.4167V5H1.45825C1.29249 5 1.13352 5.06585 1.01631 5.18306C0.8991 5.30027 0.833252 5.45924 0.833252 5.625V18.75C0.833252 19.0815 0.964948 19.3995 1.19937 19.6339C1.43379 19.8683 1.75173 20 2.08325 20H12.0833C12.4148 20 12.7327 19.8683 12.9671 19.6339C13.2016 19.3995 13.3333 19.0815 13.3333 18.75V16.6667H7.08325Z" fill="#2BA2DB"/>
<path d="M16.25 3.75H20L16.25 0V3.75Z" fill="#2BA2DB"/>
<path d="M15 5V0H8.125C7.95924 0 7.80027 0.065848 7.68306 0.183058C7.56585 0.300269 7.5 0.45924 7.5 0.625V13.75C7.5 14.0815 7.6317 14.3995 7.86612 14.6339C8.10054 14.8683 8.41848 15 8.75 15H18.75C19.0815 15 19.3995 14.8683 19.6339 14.6339C19.8683 14.3995 20 14.0815 20 13.75V5H15Z" fill="#2BA2DB"/>
</svg>
