<svg width="20" height="20" viewBox="0 0 20 20" fill="none" xmlns="http://www.w3.org/2000/svg">
<path d="M15 0H13.3334V5C13.3334 5.22101 13.2456 5.43297 13.0893 5.58926C12.933 5.74554 12.7211 5.83333 12.5 5.83333H5.83337C5.61236 5.83333 5.4004 5.74554 5.24412 5.58926C5.08784 5.43297 5.00004 5.22101 5.00004 5V0H0.833374V17.5C0.833374 17.942 1.00897 18.3659 1.32153 18.6785C1.63409 18.9911 2.05801 19.1667 2.50004 19.1667H17.5C17.9421 19.1667 18.366 18.9911 18.6786 18.6785C18.9911 18.3659 19.1667 17.942 19.1667 17.5V3.33333L15 0ZM15 17.5H5.00004V13.3333C5.00004 13.1123 5.08784 12.9004 5.24412 12.7441C5.4004 12.5878 5.61236 12.5 5.83337 12.5H14.1667C14.3877 12.5 14.5997 12.5878 14.756 12.7441C14.9122 12.9004 15 13.1123 15 13.3333V17.5Z" fill="#2BA2DB"/>
</svg>
