<svg width="20" height="20" viewBox="0 0 20 20" fill="none" xmlns="http://www.w3.org/2000/svg">
<path d="M18 0.233406L19.7667 2.00007C19.8078 2.04109 19.8403 2.08981 19.8626 2.14343C19.8848 2.19705 19.8962 2.25453 19.8962 2.31257C19.8962 2.37062 19.8848 2.4281 19.8626 2.48172C19.8403 2.53534 19.8078 2.58405 19.7667 2.62507L10.4417 11.9167L7.27502 12.7501L8.10836 9.58341L17.375 0.266739C17.4138 0.223408 17.4608 0.188162 17.5132 0.163025C17.5656 0.137887 17.6225 0.123353 17.6806 0.120256C17.7387 0.117159 17.7968 0.12556 17.8516 0.144977C17.9064 0.164394 17.9569 0.194445 18 0.233406Z" fill="#2BA2DB"/>
<path d="M15 10.0001V16.6667H3.33333V5.00008H10V1.66675H0V20.0001H18.3333V10.0001H15Z" fill="#2BA2DB"/>
</svg>
