<svg width="20" height="20" viewBox="0 0 20 20" fill="none" xmlns="http://www.w3.org/2000/svg">
<path d="M18.25 2.66667H13.75V1H6.25V2.66667H1.75C1.55109 2.66667 1.36032 2.75446 1.21967 2.91074C1.07902 3.06702 1 3.27899 1 3.5L1 5.16667C1 5.38768 1.07902 5.59964 1.21967 5.75592C1.36032 5.9122 1.55109 6 1.75 6H18.25C18.4489 6 18.6397 5.9122 18.7803 5.75592C18.921 5.59964 19 5.38768 19 5.16667V3.5C19 3.27899 18.921 3.06702 18.7803 2.91074C18.6397 2.75446 18.4489 2.66667 18.25 2.66667Z" fill="#2BA2DB"/>
<path d="M15.024 19H5.056C4.66413 19.0028 4.28477 18.8708 3.98985 18.6289C3.69493 18.3869 3.50497 18.052 3.456 17.6875L2 7H18L16.616 17.6875C16.5672 18.0507 16.3784 18.3846 16.0851 18.6264C15.7919 18.8681 15.4145 19.001 15.024 19Z" fill="#2BA2DB"/>
</svg>
