<svg width="58" height="58" viewBox="0 0 58 58" fill="none" xmlns="http://www.w3.org/2000/svg">
<path d="M47 14H11C9.9 14 9 14.9 9 16V43C9 44.1 9.9 45 11 45H47C48.1 45 49 44.1 49 43V16C49 14.9 48.1 14 47 14ZM12.414 43L21 34.414L29.586 43H12.414ZM32.414 43L26.614 37.198L33.482 30.422L45.612 43H32.412H32.414ZM47 41.56L33.518 27.577L25.198 35.783L21 31.586L11 41.586V16H47V41.56ZM21 22C21.5302 22.0008 22.0384 22.2118 22.4133 22.5867C22.7882 22.9616 22.9992 23.4698 23 24C22.9992 24.5302 22.7882 25.0384 22.4133 25.4133C22.0384 25.7882 21.5302 25.9992 21 26C20.4698 25.9992 19.9616 25.7882 19.5867 25.4133C19.2118 25.0384 19.0008 24.5302 19 24C19.0008 23.4698 19.2118 22.9616 19.5867 22.5867C19.9616 22.2118 20.4698 22.0008 21 22Z" fill="#4353FF"/>
</svg>
