<svg width="58" height="58" viewBox="0 0 58 58" fill="none" xmlns="http://www.w3.org/2000/svg">
<path d="M46 14H12C10.35 14 9 15.35 9 17V42C9 43.65 10.35 45 12 45H46C47.65 45 49 43.65 49 42V17C49 15.35 47.65 14 46 14ZM47 42C47 42.542 46.542 43 46 43H12C11.458 43 11 42.542 11 42V17C11 16.458 11.458 16 12 16H46C46.542 16 47 16.458 47 17V42ZM27.117 24.328L24 22.528V36.47L27.123 34.67L32.973 31.218L35.885 29.498L33.011 27.78L27.121 24.328H27.117ZM26 32.953V26.046L31.8 29.499L26 32.949V32.953Z" fill="#4353FF"/>
</svg>
