<svg width="58" height="58" viewBox="0 0 58 58" fill="none" xmlns="http://www.w3.org/2000/svg">
<path d="M40 33.42L32 25.42L25.41 32.01L29.41 36H40V33.42ZM40 30.59V14H10V36H10.6L20 26.6L24 30.6L32 22.6L40 30.59ZM26.58 36L20 29.42L13.42 36H26.58ZM10 12H40C40.5304 12 41.0391 12.2107 41.4142 12.5858C41.7893 12.9609 42 13.4696 42 14V36C42 36.5304 41.7893 37.0391 41.4142 37.4142C41.0391 37.7893 40.5304 38 40 38H10C9.46957 38 8.96086 37.7893 8.58579 37.4142C8.21071 37.0391 8 36.5304 8 36V14C8 12.9 8.9 12 10 12ZM44 17C44.5304 17 45.0391 17.2107 45.4142 17.5858C45.7893 17.9609 46 18.4696 46 19V39C46 39.7956 45.6839 40.5587 45.1213 41.1213C44.5587 41.6839 43.7957 42 43 42H15C14.4696 42 13.9609 41.7893 13.5858 41.4142C13.2107 41.0391 13 40.5304 13 40H43C43.2652 40 43.5196 39.8946 43.7071 39.7071C43.8946 39.5196 44 39.2652 44 39V17ZM48 21C48.5304 21 49.0391 21.2107 49.4142 21.5858C49.7893 21.9609 50 22.4696 50 23V43C50 43.7956 49.6839 44.5587 49.1213 45.1213C48.5587 45.6839 47.7957 46 47 46H19C18.4696 46 17.9609 45.7893 17.5858 45.4142C17.2107 45.0391 17 44.5304 17 44H47C47.2652 44 47.5196 43.8946 47.7071 43.7071C47.8946 43.5196 48 43.2652 48 43V21ZM18 22C17.4696 22 16.9609 21.7893 16.5858 21.4142C16.2107 21.0391 16 20.5304 16 20C16 19.4696 16.2107 18.9609 16.5858 18.5858C16.9609 18.2107 17.4696 18 18 18C18.5304 18 19.0391 18.2107 19.4142 18.5858C19.7893 18.9609 20 19.4696 20 20C20 20.5304 19.7893 21.0391 19.4142 21.4142C19.0391 21.7893 18.5304 22 18 22Z" fill="#4353FF"/>
</svg>
