<svg width="58" height="58" viewBox="0 0 58 58" fill="none" xmlns="http://www.w3.org/2000/svg">
<path d="M13 19C12.4696 19 11.9609 19.2107 11.5858 19.5858C11.2107 19.9609 11 20.4696 11 21C11 21.5304 11.2107 22.0391 11.5858 22.4142C11.9609 22.7893 12.4696 23 13 23C13.5304 23 14.0391 22.7893 14.4142 22.4142C14.7893 22.0391 15 21.5304 15 21C15 20.4696 14.7893 19.9609 14.4142 19.5858C14.0391 19.2107 13.5304 19 13 19ZM29 30V16C29 14.9 28.1 14 27 14H7C5.9 14 5 14.9 5 16V30C5 31.1 5.9 32 7 32H27C28.1 32 29 31.1 29 30ZM7 30V16H27V26.586L22 21.586L13.586 30H7ZM22 24.414L27 29.414V30H16.414L22 24.414ZM32 18V20H54V18H32ZM32 26H54V24H32V26ZM32 32H54V30H32V32ZM8 38H54V36H8V38ZM8 44H39V42H8V44Z" fill="#4353FF"/>
</svg>
