<svg width="58" height="58" viewBox="0 0 58 58" fill="none" xmlns="http://www.w3.org/2000/svg">
<path d="M42.586 25.6346L44 27.0466L29.51 41.5146C26.19 44.8276 20.802 44.8266 17.487 41.5176C16.6984 40.7298 16.0728 39.7943 15.646 38.7646C15.2193 37.7349 14.9997 36.6312 15 35.5166C15 34.4016 15.2199 33.2975 15.647 32.2676C16.0742 31.2381 16.7001 30.303 17.489 29.5156L31.27 15.7526C32.3965 14.6302 33.9218 14 35.512 14C37.1022 14 38.6275 14.6302 39.754 15.7526C40.3112 16.308 40.7533 16.968 41.055 17.6946C41.3568 18.4214 41.5121 19.2006 41.5121 19.9876C41.5121 20.7746 41.3568 21.5538 41.055 22.2806C40.7533 23.0072 40.3112 23.6671 39.754 24.2226L25.962 37.9926C25.6372 38.3174 25.2515 38.575 24.827 38.7506C24.4027 38.9259 23.9481 39.016 23.489 39.0156C23.0297 39.0151 22.5751 38.924 22.151 38.7476C21.7271 38.5711 21.3421 38.3129 21.018 37.9876C20.6924 37.6634 20.4341 37.278 20.258 36.8536C20.0817 36.4291 19.9912 35.974 19.9915 35.5144C19.9918 35.0548 20.0831 34.5998 20.26 34.1756C20.4365 33.7512 20.6955 33.3661 21.022 33.0426L35.512 18.5756L36.926 19.9856L22.44 34.4556C22.2993 34.5938 22.1874 34.7587 22.111 34.9406C21.996 35.2145 21.9655 35.5165 22.0235 35.8078C22.0814 36.0991 22.225 36.3665 22.436 36.5756C23.026 37.1656 23.966 37.1656 24.552 36.5826L38.344 22.8126C38.716 22.4426 39.011 22.0026 39.212 21.5176C39.4133 21.033 39.517 20.5134 39.517 19.9886C39.5168 19.4642 39.4132 18.9449 39.212 18.4606C39.0107 17.976 38.7157 17.5359 38.344 17.1656C37.5929 16.4176 36.576 15.9976 35.516 15.9976C34.456 15.9976 33.439 16.4176 32.688 17.1656L18.903 30.9276C18.2999 31.5299 17.8215 32.2452 17.495 33.0326C17.1684 33.82 17.0002 34.6641 17 35.5166C16.9999 36.3687 17.1678 37.2124 17.494 37.9996C17.9856 39.1872 18.8192 40.202 19.8887 40.9149C20.9583 41.6278 22.2156 42.0068 23.501 42.0036C25.2249 42.0028 26.8783 41.3189 28.099 40.1016L42.589 25.6336H42.586V25.6346Z" fill="#4353FF"/>
</svg>
