<svg width="58" height="58" viewBox="0 0 58 58" fill="none" xmlns="http://www.w3.org/2000/svg">
<path d="M21.168 38.26L19.322 33.71H10.29L8.47 38.26H6L13.936 20.252H15.936L23.642 38.26H21.168ZM14.608 23.2L11.01 31.926H18.573L14.98 23.076H14.712L14.608 23.2ZM32.42 38.57C31.62 38.57 30.832 38.393 30.074 38.044C29.322 37.698 28.724 37.204 28.296 36.579L28.236 36.489H27.93L27.878 36.689V38.259H25.938V19H27.878V28.1H28.188L28.298 28.01C28.692 27.403 29.268 26.914 30.01 26.56C30.7627 26.2016 31.5863 26.017 32.42 26.02C33.34 26.02 34.185 26.182 34.928 26.5C35.67 26.815 36.312 27.26 36.838 27.816C37.3719 28.3909 37.7859 29.0664 38.056 29.803C38.341 30.566 38.486 31.403 38.486 32.293C38.486 33.183 38.341 34.017 38.056 34.771C37.782 35.5071 37.3677 36.1829 36.836 36.761C36.3005 37.3344 35.6495 37.7877 34.926 38.091C34.188 38.411 33.344 38.571 32.421 38.571L32.42 38.57ZM32.135 27.808C31.487 27.808 30.891 27.923 30.365 28.15C29.8588 28.3639 29.4025 28.6806 29.025 29.08C28.661 29.473 28.375 29.95 28.177 30.503C27.979 31.05 27.879 31.653 27.879 32.299C27.879 32.945 27.979 33.539 28.169 34.089C28.369 34.639 28.651 35.119 29.019 35.509C29.3953 35.9098 29.8519 36.2266 30.359 36.439C30.9195 36.6722 31.522 36.7879 32.129 36.779C32.7362 36.7872 33.3386 36.6708 33.899 36.437C34.419 36.211 34.872 35.897 35.239 35.507C35.6157 35.0962 35.9049 34.6131 36.089 34.087C36.2923 33.5095 36.3938 32.9012 36.389 32.289C36.389 31.644 36.289 31.039 36.089 30.492C35.9049 29.9659 35.6157 29.4828 35.239 29.072C34.862 28.6713 34.4056 28.3535 33.899 28.139C33.3386 27.9052 32.7362 27.7888 32.129 27.797L32.135 27.808ZM47.475 38.57C46.55 38.57 45.695 38.42 44.935 38.118C44.1979 37.8319 43.5261 37.4 42.96 36.848C42.4007 36.2916 41.9646 35.6238 41.68 34.888C41.38 34.128 41.226 33.273 41.226 32.348C41.226 31.426 41.379 30.568 41.68 29.796C41.9634 29.0543 42.3956 28.3784 42.95 27.81C43.49 27.26 44.15 26.826 44.91 26.516C45.673 26.206 46.535 26.049 47.474 26.049C48.3337 26.0443 49.1866 26.2003 49.989 26.509C50.7148 26.7912 51.3726 27.2241 51.919 27.779L50.439 29.124C50.0608 28.7478 49.6254 28.434 49.149 28.194C48.647 27.948 48.045 27.824 47.359 27.824C46.689 27.824 46.096 27.948 45.594 28.194C45.1003 28.4339 44.6675 28.7827 44.328 29.214C43.9863 29.6534 43.7277 30.1516 43.565 30.684C43.3938 31.2378 43.3075 31.8143 43.309 32.394C43.309 32.986 43.409 33.556 43.609 34.087C43.7985 34.6046 44.0857 35.0809 44.455 35.49C44.82 35.89 45.265 36.21 45.77 36.435C46.3123 36.6709 46.8986 36.7888 47.49 36.781C48.18 36.781 48.777 36.657 49.27 36.411C49.7256 36.178 50.1374 35.8677 50.487 35.494L51.867 36.874C51.336 37.4366 50.6824 37.8691 49.957 38.138C49.1587 38.4266 48.3158 38.5722 47.467 38.568L47.475 38.57Z" fill="#4353FF"/>
</svg>
