<svg width="58" height="58" viewBox="0 0 58 58" fill="none" xmlns="http://www.w3.org/2000/svg">
<path d="M40.5378 16.9112L40.0987 16.4733C39.3108 15.6865 38.3752 15.063 37.3456 14.6385C36.316 14.2141 35.2126 13.9971 34.0989 14C32.9847 13.9969 31.8808 14.2138 30.8506 14.6382C29.8205 15.0627 28.8843 15.6863 28.0959 16.4733L23.9278 20.6396C20.6293 23.9367 20.6293 29.3349 23.9278 32.634L24.3626 33.0793C24.7126 33.4291 25.0859 33.7365 25.4783 34.0122L25.6693 33.8213L27.0056 32.4856C26.5903 32.2304 26.2059 31.9281 25.8602 31.5845L25.4221 31.1466C24.8311 30.5567 24.3629 29.8556 24.0447 29.0837C23.7264 28.3117 23.5645 27.4844 23.5682 26.6495C23.5682 24.9427 24.2258 23.3472 25.4211 22.1525L29.5892 17.9861C30.1797 17.3956 30.8814 16.9279 31.6539 16.6102C32.4263 16.2925 33.2541 16.131 34.0894 16.1351C35.7969 16.1351 37.3963 16.7924 38.5916 17.9904L39.0265 18.4272C39.6179 19.0169 40.0865 19.718 40.4051 20.4899C40.7237 21.2618 40.8859 22.0892 40.8825 22.9242C40.8868 23.7593 40.7251 24.587 40.4068 25.3591C40.0886 26.1313 39.6201 26.8326 39.0286 27.4224L38.494 27.9567C38.8334 28.7518 39.0031 29.5999 38.9946 30.4512L40.5261 28.9204C43.8246 25.6233 43.8246 20.223 40.5261 16.9239L40.5378 16.9112ZM32.6363 23.9324C32.291 23.5908 31.9166 23.2797 31.5174 23.0027L31.3265 23.1935L29.9901 24.5293C30.4006 24.7837 30.7877 25.0827 31.1377 25.4304L31.5747 25.8682C32.164 26.4586 32.6304 27.1597 32.9472 27.9312C33.2639 28.7027 33.4247 29.5293 33.4201 30.3632C33.4245 31.1977 33.2632 32.0248 32.9455 32.7966C32.6278 33.5684 32.1601 34.2694 31.5694 34.8592L27.4012 39.0255C26.8107 39.6165 26.1089 40.0845 25.3362 40.4026C24.5636 40.7207 23.7356 40.8825 22.9 40.8787C22.0651 40.8825 21.2377 40.7207 20.4658 40.4026C19.6938 40.0845 18.9927 39.6164 18.4031 39.0255L17.9682 38.5909C17.377 38.0014 16.9086 37.3007 16.59 36.5291C16.2714 35.7576 16.109 34.9306 16.1122 34.0959C16.1122 32.3891 16.7698 30.7915 17.964 29.5967L18.4996 29.0624C18.1616 28.275 17.9918 27.4257 18.0011 26.569L16.4739 28.0987C13.1754 31.3958 13.1754 36.794 16.4739 40.0931L16.9151 40.5299C18.5088 42.1156 20.6672 43.004 22.9159 43C25.0923 43 27.2644 42.1731 28.9168 40.5193L33.085 36.3529C36.3834 33.0559 36.3834 27.6567 33.085 24.3575L32.648 23.9229L32.6363 23.9324Z" fill="#4353FF"/>
</svg>
