<svg width="58" height="58" viewBox="0 0 58 58" fill="none" xmlns="http://www.w3.org/2000/svg">
<path opacity="0.5" d="M45 29.0179V31.3629C44.41 31.9649 41.752 32.9999 37.523 32.9999C33.293 32.9999 30.637 31.9649 30.045 31.3629V29.0179C29.225 28.7449 28.55 28.4279 28.045 28.0779V31.5829C28.045 33.4709 32.288 34.9999 37.523 34.9999C42.758 34.9999 47 33.4699 47 31.5829V28.0769C46.495 28.4269 45.82 28.7449 45 29.0169V29.0179Z" fill="#4353FF"/>
<path opacity="0.15" d="M29.686 28.8879C29.806 28.9319 29.92 28.9779 30.046 29.0179V31.3629C30.638 31.9649 33.294 32.9999 37.523 32.9999C41.753 32.9999 44.408 31.9649 45 31.3629V29.0179C45.126 28.9759 45.243 28.9309 45.362 28.8879C43.446 29.5949 40.649 30.0429 37.522 30.0429C34.399 30.0429 31.602 29.5949 29.686 28.8879Z" fill="#4353FF"/>
<path d="M37.523 24.903C33.295 24.903 30.638 23.869 30.045 23.267V21.637C30.638 21.034 33.295 20 37.523 20C41.751 20 44.408 21.034 45 21.636V23.266C44.407 23.869 41.75 24.903 37.523 24.903ZM37.523 18C32.289 18 28.046 19.53 28.046 21.416V23.488C28.046 25.374 32.289 26.903 37.523 26.903C42.757 26.903 47 25.373 47 23.488V21.416C47 19.53 42.758 18 37.523 18Z" fill="#4353FF"/>
<path opacity="0.25" d="M37.523 24.903C33.295 24.903 30.638 23.869 30.045 23.267V21.637C30.638 21.034 33.295 20 37.523 20C41.751 20 44.408 21.034 45 21.636V23.266C44.407 23.869 41.75 24.903 37.523 24.903Z" fill="#4353FF"/>
<path d="M45 36.8451V39.1901C44.41 39.7921 41.752 40.8271 37.523 40.8271C33.293 40.8271 30.637 39.7921 30.045 39.1901V36.8451C29.225 36.5721 28.55 36.2551 28.045 35.9051V39.4101C28.045 41.2981 32.288 42.8271 37.523 42.8271C42.757 42.8271 47 41.2971 47 39.4101V35.9041C46.495 36.2541 45.82 36.5721 45 36.8441V36.8451Z" fill="#4353FF"/>
<path opacity="0.25" d="M29.686 36.714C29.806 36.758 29.92 36.804 30.046 36.844V39.189C30.638 39.789 33.296 40.824 37.524 40.824C41.754 40.824 44.409 39.789 45.001 39.187V36.841C45.129 36.799 45.246 36.754 45.365 36.711C43.449 37.418 40.652 37.866 37.525 37.866C34.401 37.866 31.605 37.418 29.688 36.71L29.686 36.714Z" fill="#4353FF"/>
<path d="M24.954 23L19 18V22H15.954C14.3 22 12.954 20.654 12.954 19V14H11V19.452C11.234 21.99 13.36 24 15.954 24H19V28L24.954 23Z" fill="#4353FF"/>
<path d="M24.954 39L19 34V38H15.954C14.3 38 12.954 36.654 12.954 35V20H11V35.452C11.234 37.99 13.36 40 15.954 40H19V44L24.954 39Z" fill="#4353FF"/>
</svg>
