<svg width="58" height="58" viewBox="0 0 58 58" fill="none" xmlns="http://www.w3.org/2000/svg">
<path opacity="0.25" d="M37.5 40C43.299 40 48 35.299 48 29.5C48 23.701 43.299 19 37.5 19C31.701 19 27 23.701 27 29.5C27 35.299 31.701 40 37.5 40Z" fill="#4353FF"/>
<path d="M45.963 37.267C46.04 37.184 46.117 37.102 46.191 37.017C46.341 36.849 46.478 36.677 46.611 36.501C46.8214 36.233 47.0184 35.9547 47.201 35.667C47.3878 35.374 47.5613 35.0727 47.721 34.764C47.801 34.61 47.877 34.452 47.949 34.294C48.0251 34.1325 48.0971 33.9691 48.165 33.804C48.235 33.628 48.3 33.447 48.363 33.267C48.419 33.109 48.473 32.953 48.523 32.792C48.583 32.592 48.631 32.387 48.68 32.182C48.715 32.032 48.755 31.886 48.785 31.735C48.831 31.495 48.862 31.255 48.895 31.015C48.911 30.887 48.935 30.765 48.947 30.635C48.984 30.262 49.005 29.885 49.005 29.505C49.005 29.125 48.985 28.745 48.948 28.375C48.936 28.245 48.912 28.121 48.895 27.995C48.863 27.755 48.832 27.512 48.785 27.275C48.755 27.125 48.715 26.977 48.679 26.828C48.629 26.623 48.581 26.418 48.521 26.218C48.471 26.056 48.415 25.9 48.361 25.742C48.298 25.562 48.236 25.382 48.164 25.204C48.0968 25.0389 48.0254 24.8755 47.95 24.714C47.7992 24.3822 47.6313 24.0584 47.447 23.744C47.2649 23.4323 47.0694 23.1287 46.861 22.834C46.7791 22.7229 46.6958 22.6129 46.611 22.504C46.4777 22.328 46.3393 22.156 46.196 21.988C46.124 21.903 46.046 21.821 45.971 21.738C45.8051 21.5581 45.635 21.3821 45.461 21.21C45.403 21.157 45.344 21.107 45.291 21.055C45.0851 20.8661 44.8729 20.684 44.655 20.509L44.619 20.481C42.9951 19.1968 41.053 18.2673 39 18H20V18.025C13.883 18.29 9 23.318 9 29.5C9 35.682 13.883 40.71 20 40.975V41L39 40.89C41.0502 40.6239 42.9898 39.8066 44.612 38.525L44.649 38.497C44.8641 38.3203 45.0742 38.1376 45.279 37.949C45.334 37.892 45.393 37.842 45.449 37.789C45.6263 37.6206 45.7965 37.4448 45.959 37.262L45.963 37.267ZM46.953 30.422C46.94 30.552 46.917 30.677 46.899 30.804C46.871 30.974 46.849 31.144 46.819 31.31C46.789 31.47 46.743 31.63 46.709 31.788C46.673 31.914 46.643 32.04 46.609 32.163C46.5556 32.3387 46.4969 32.5128 46.433 32.685C46.398 32.785 46.363 32.883 46.325 32.98C46.2513 33.1623 46.1723 33.3424 46.088 33.52C46.05 33.6 46.013 33.68 45.973 33.76C45.7462 34.2056 45.4861 34.6335 45.195 35.04C45.159 35.09 45.122 35.137 45.085 35.186C44.9484 35.3693 44.8049 35.5474 44.655 35.72L44.565 35.82C44.4027 36.003 44.2336 36.1797 44.058 36.35L44.018 36.387C42.5689 37.7644 40.7203 38.6467 38.738 38.907L38.372 38.954C38.0806 38.9835 37.7879 38.9988 37.495 39C32.257 39 27.995 34.738 27.995 29.5C27.995 24.262 32.262 20 37.5 20C37.796 20 38.087 20.018 38.376 20.044L38.741 20.092C40.7257 20.3509 42.577 21.2333 44.028 22.612C44.2179 22.7932 44.4004 22.982 44.575 23.178C44.605 23.21 44.638 23.243 44.668 23.278C44.8582 23.4964 45.0384 23.7233 45.208 23.958C45.4987 24.3644 45.7581 24.7923 45.984 25.238C46.024 25.316 46.061 25.395 46.099 25.475C46.183 25.653 46.262 25.832 46.335 26.015C46.375 26.113 46.408 26.213 46.443 26.311C46.506 26.487 46.566 26.661 46.618 26.837C46.656 26.961 46.686 27.087 46.718 27.212C46.758 27.37 46.798 27.528 46.828 27.69C46.861 27.857 46.883 28.027 46.908 28.196C46.925 28.323 46.948 28.449 46.961 28.578C47.0233 29.1918 47.0233 29.8102 46.961 30.424L46.953 30.422ZM20.63 39L20.086 38.977C14.99 38.757 11 34.594 11 29.5C11 24.406 14.99 20.22 20.086 20L20.502 19.977L31.022 20C27.992 22.07 26 25.552 26 29.5C26 33.448 27.99 36.93 31.022 39H20.63Z" fill="#4353FF"/>
</svg>
