<svg width="58" height="58" viewBox="0 0 58 58" fill="none" xmlns="http://www.w3.org/2000/svg">
<path d="M31.704 33.93C30.214 27.92 21.46 11.003 21.46 11.003C21.46 11.003 13.79 26.079 11.436 33.173C11.153 34.008 11 35.231 11 36.166L11.015 36.298C11.0055 36.3877 11.0005 36.4778 11 36.568C11 42.318 15.696 46.983 21.486 46.983C27.266 46.983 31.972 42.319 31.972 36.567L31.96 36.362L31.972 36.162C31.972 35.082 31.704 33.922 31.704 33.922V33.93ZM21.486 44.983C16.806 44.983 13 41.206 13 36.566L13.005 36.494L13.015 36.394V36.304L13 36.053C13.013 35.276 13.148 34.353 13.335 33.803C14.925 29.013 19.08 20.326 21.475 15.459C24.089 20.694 28.749 30.322 29.755 34.379C29.81 34.617 29.963 35.431 29.971 36.112L29.961 36.362C29.961 36.442 29.971 36.522 29.981 36.612C29.955 41.232 26.158 44.982 21.496 44.982L21.486 44.983ZM47 25.673C47 25.047 46.847 24.37 46.847 24.37C45.997 20.865 40.997 11 40.997 11C40.997 11 36.617 19.79 35.272 23.928C35.11 24.414 35.022 25.128 35.022 25.673L35.03 25.75L35.022 25.907C35.022 29.261 37.704 31.98 41.012 31.98C44.312 31.98 47 29.26 47 25.907L46.993 25.787L47 25.672V25.673ZM41.01 29.98C38.81 29.98 37.022 28.152 37.02 25.942L37.03 25.842V25.742L37.023 25.572C37.033 25.182 37.103 24.746 37.173 24.542C37.915 22.255 39.661 18.412 41.01 15.562C42.58 18.842 44.453 22.982 44.896 24.802C44.916 24.886 44.991 25.286 44.999 25.612L44.989 25.782V25.952C44.959 28.174 43.182 29.972 40.999 29.972L41.01 29.98Z" fill="#4353FF"/>
</svg>
