<svg width="58" height="58" viewBox="0 0 58 58" fill="none" xmlns="http://www.w3.org/2000/svg">
<path d="M24.954 29.9031L18.954 24.9031V28.9031H15.954C14.3 28.9031 12.954 27.5571 12.954 25.9031V20.9031H11V26.3551C11.234 28.8931 13.36 30.9031 15.954 30.9031H18.954V34.9031L24.954 29.9031Z" fill="#4353FF"/>
<path opacity="0.5" d="M37.432 23.903C33.204 23.903 30.547 22.869 29.954 22.267V20.637C30.546 20.035 33.204 19 37.432 19C41.66 19 44.316 20.034 44.909 20.636V22.266C44.314 22.87 41.659 23.903 37.432 23.903ZM37.432 17C32.197 17 27.954 18.53 27.954 20.416V22.488C27.954 24.373 32.197 25.903 37.432 25.903C42.666 25.903 46.909 24.373 46.909 22.488V20.416C46.909 18.529 42.666 17 37.432 17Z" fill="#4353FF"/>
<path opacity="0.15" d="M37.432 23.903C33.204 23.903 30.547 22.869 29.954 22.267V20.637C30.546 20.035 33.204 19 37.432 19C41.66 19 44.316 20.034 44.909 20.636V22.266C44.314 22.87 41.659 23.903 37.432 23.903Z" fill="#4353FF"/>
<path d="M44.908 27.878V30.223C44.318 30.825 41.66 31.86 37.431 31.86C33.201 31.86 30.545 30.825 29.953 30.223V27.878C29.129 27.605 28.455 27.288 27.953 26.938V30.443C27.953 32.331 32.193 33.86 37.428 33.86C42.662 33.86 46.905 32.33 46.905 30.443V26.937C46.4 27.287 45.725 27.605 44.905 27.877L44.908 27.878Z" fill="#4353FF"/>
<path opacity="0.25" d="M29.594 27.748C29.714 27.792 29.828 27.838 29.954 27.878V30.223C30.546 30.825 33.204 31.86 37.432 31.86C41.662 31.86 44.317 30.825 44.909 30.223V27.878C45.035 27.836 45.152 27.791 45.271 27.748C43.354 28.453 40.557 28.903 37.431 28.903C34.307 28.903 31.511 28.455 29.594 27.748Z" fill="#4353FF"/>
<path opacity="0.5" d="M44.908 35.8431V38.1891C44.318 38.7911 41.66 39.8261 37.431 39.8261C33.201 39.8261 30.545 38.7911 29.953 38.1891V35.8431C29.129 35.5711 28.455 35.2531 27.953 34.9031V38.4091C27.953 40.2971 32.193 41.8261 37.428 41.8261C42.662 41.8261 46.905 40.2961 46.905 38.4091V34.9031C46.4 35.2531 45.725 35.5731 44.905 35.8431H44.908Z" fill="#4353FF"/>
<path opacity="0.15" d="M29.594 35.7131C29.714 35.7581 29.828 35.8031 29.954 35.8431V38.1891C30.546 38.7911 33.204 39.8261 37.432 39.8261C41.662 39.8261 44.317 38.7911 44.909 38.1891V35.8431C45.035 35.8031 45.152 35.7571 45.271 35.7131C43.355 36.4211 40.558 36.8691 37.431 36.8691C34.307 36.8691 31.511 36.4221 29.594 35.7141V35.7131Z" fill="#4353FF"/>
</svg>
