<svg width="32" height="32" viewBox="0 0 32 32" fill="none" xmlns="http://www.w3.org/2000/svg">
<g clip-path="url(#clip0)">
<path d="M30.0001 14H9.36941C9.281 14 9.19622 13.9649 9.1337 13.9024C9.07119 13.8398 9.03607 13.7551 9.03607 13.6666V9.62931C9.03602 9.36565 8.95779 9.10792 8.81127 8.8887C8.66476 8.66949 8.45654 8.49864 8.21294 8.39774C7.96935 8.29685 7.7013 8.27045 7.4427 8.32187C7.18409 8.37329 6.94654 8.50023 6.76007 8.68665L0.389405 15.0573C0.139444 15.3074 -0.000976562 15.6464 -0.000976562 16C-0.000976563 16.3535 0.139444 16.6926 0.389405 16.9426L6.76007 23.3133C7.01006 23.5634 7.34915 23.7039 7.70274 23.704C8.05636 23.704 8.3955 23.5635 8.64555 23.3135C8.8956 23.0634 9.03607 22.7243 9.03607 22.3706V18.3333C9.03607 18.2449 9.07119 18.1601 9.1337 18.0976C9.19622 18.0351 9.281 18 9.36941 18H30.0001C30.5305 18 31.0392 17.7893 31.4143 17.4142C31.7894 17.0391 32.0001 16.5304 32.0001 16C32.0001 15.4695 31.7894 14.9608 31.4143 14.5858C31.0392 14.2107 30.5305 14 30.0001 14Z" fill="#7A7685"/>
</g>
<defs>
<clipPath id="clip0">
<rect width="32" height="32" fill="white"/>
</clipPath>
</defs>
</svg>
