<svg width="32" height="32" viewBox="0 0 32 32" fill="none" xmlns="http://www.w3.org/2000/svg">
<path d="M31.6093 15.0546L25.2387 8.68396C25.0522 8.49755 24.8146 8.37061 24.556 8.31918C24.2974 8.26776 24.0294 8.29416 23.7858 8.39506C23.5422 8.49595 23.334 8.6668 23.1875 8.88602C23.041 9.10523 22.9627 9.36296 22.9627 9.62663V13.664C22.9627 13.7524 22.9275 13.8372 22.865 13.8997C22.8025 13.9622 22.7177 13.9973 22.6293 13.9973H2C1.46957 13.9973 0.960859 14.208 0.585786 14.5831C0.210714 14.9582 0 15.4669 0 15.9973C0 16.5277 0.210714 17.0364 0.585786 17.4115C0.960859 17.7866 1.46957 17.9973 2 17.9973H22.6293C22.7177 17.9973 22.8025 18.0324 22.865 18.0949C22.9275 18.1574 22.9627 18.2422 22.9627 18.3306V22.368C22.9627 22.6316 23.041 22.8894 23.1875 23.1086C23.334 23.3278 23.5422 23.4986 23.7858 23.5995C24.0294 23.7004 24.2974 23.7268 24.556 23.6754C24.8146 23.624 25.0522 23.497 25.2387 23.3106L31.6093 16.94C31.8593 16.6899 31.9997 16.3508 31.9997 15.9973C31.9997 15.6437 31.8593 15.3047 31.6093 15.0546V15.0546Z" fill="#7A7685"/>
</svg>
